<svg xmlns="http://www.w3.org/2000/svg" width="64" height="64" viewBox="0 0 64 64" fill="none">
  <rect x="4" y="4" width="56" height="56" rx="14" fill="#0F172A"/>
  <path d="M18 42.5V21.5h7.8c2.2 0 4 .5 5.2 1.5 1.2 1 1.8 2.4 1.8 4.2 0 1.1-.3 2.1-.9 2.9-.6.8-1.4 1.4-2.4 1.8 1.3.3 2.3.9 3 1.8.7.9 1.1 2 1.1 3.2 0 2-.7 3.6-2.1 4.8-1.4 1.2-3.3 1.8-5.8 1.8H18Zm4.6-12.4h3.5c1 0 1.9-.2 2.5-.7.6-.5.9-1.2.9-2.1 0-1-.3-1.7-.9-2.1-.6-.4-1.5-.6-2.8-.6h-3.2v5.5Zm0 8.6h3.9c1.1 0 2-.2 2.6-.7.6-.5.9-1.2.9-2.2 0-2-1.1-3-3.3-3h-4.1v5.9Z" fill="#FFFFFF"/>
  <circle cx="46" cy="44" r="4" fill="#38BDF8"/>
</svg>

