<svg xmlns="http://www.w3.org/2000/svg" width="64" height="64" viewBox="0 0 64 64" fill="none" aria-hidden="true">
  <defs>
    <linearGradient id="logo-bg" x1="8" y1="10" x2="56" y2="54" gradientUnits="userSpaceOnUse">
      <stop stop-color="#0f172a"/>
      <stop offset="1" stop-color="#075985"/>
    </linearGradient>
  </defs>
  <rect x="4" y="4" width="56" height="56" rx="14" fill="url(#logo-bg)"/>
  <!-- Repositorio / carpeta -->
  <path
    d="M17 23h11l2 3h13a2 2 0 0 1 2 2v15a2 2 0 0 1-2 2H17a2 2 0 0 1-2-2V25a2 2 0 0 1 2-2Z"
    stroke="#e2e8f0"
    stroke-width="2"
    stroke-linejoin="round"
    fill="rgba(248,250,252,0.06)"
  />
  <circle cx="26" cy="38" r="3" fill="#38bdf8"/>
  <circle cx="38" cy="34" r="3" fill="#38bdf8"/>
  <path
    d="M26 41v-3m0 0h10m8-7v6"
    stroke="#cbd5e1"
    stroke-width="2"
    stroke-linecap="round"
  />
  <!-- Personas / usuarios -->
  <circle cx="42" cy="18" r="3.5" fill="#fbbf24"/>
  <path
    d="M36 26c0-3.3 2.7-6 6-6s6 2.7 6 6"
    stroke="#fde68a"
    stroke-width="2"
    stroke-linecap="round"
    fill="none"
  />
  <circle cx="24" cy="17" r="3" fill="#94a3b8"/>
</svg>
